<?xml version="1.0" standalone="no"?>
<!DOCTYPE svg PUBLIC "-//W3C//DTD SVG 20010904//EN"
 "http://www.w3.org/TR/2001/REC-SVG-20010904/DTD/svg10.dtd">
<svg version="1.0" xmlns="http://www.w3.org/2000/svg"
 width="500.000000pt" height="500.000000pt" viewBox="0 0 500.000000 500.000000"
 preserveAspectRatio="xMidYMid meet">

<g transform="translate(0.000000,500.000000) scale(0.100000,-0.100000)"
fill="#000000" stroke="none">
<path d="M2570 2520 l0 -1210 1210 0 1210 0 0 1210 0 1210 -1210 0 -1210 0 0
-1210z m890 415 l0 -465 48 34 c134 96 273 126 421 91 253 -60 424 -313 382
-566 -55 -331 -406 -521 -706 -380 -37 17 -85 45 -106 62 l-39 31 0 -61 0 -61
-75 0 -75 0 0 890 0 890 75 0 75 0 0 -465z"/>
<path d="M3720 2445 c-138 -39 -242 -161 -256 -302 -29 -272 247 -471 496
-357 180 82 258 302 168 478 -74 145 -252 224 -408 181z"/>
<path d="M1590 2989 l0 -481 -27 22 c-182 139 -390 163 -583 65 -108 -55 -213
-181 -251 -304 -25 -81 -27 -216 -5 -290 66 -224 273 -381 499 -381 106 0 235
46 318 111 20 16 40 29 43 29 3 0 6 -27 6 -60 l0 -60 75 0 75 0 0 915 0 915
-75 0 -75 0 0 -481z m-206 -528 c219 -108 269 -390 100 -571 -112 -120 -287
-147 -437 -68 -69 37 -119 91 -156 168 -23 48 -26 68 -26 150 1 82 4 102 28
150 28 59 65 102 123 146 96 74 249 84 368 25z"/>
</g>
</svg>
